<svg width="16" height="16" viewBox="0 0 512 512" fill="none" xmlns="http://www.w3.org/2000/svg">
    <path d="M462 0H50C22.3858 0 0 22.3858 0 50V462C0 489.614 22.3858 512 50 512H462C489.614 512 512 489.614 512 462V50C512 22.3858 489.614 0 462 0Z" fill="#0F1825"/>
    <path d="M368.18 271.287C372.662 277.564 379.651 281.981 387.647 283.589C395.642 285.196 404.007 283.867 410.944 279.885C417.773 275.778 422.577 269.386 424.33 262.076C426.083 254.765 424.646 247.116 420.326 240.763C415.856 234.474 408.873 230.043 400.876 228.421C392.88 226.8 384.509 228.119 377.562 232.094C370.712 236.201 365.893 242.607 364.139 249.935C362.385 257.263 363.835 264.929 368.18 271.287Z" fill="#23B3E8"/>
    <path d="M91.1395 270.105C95.9941 276.955 103.564 281.774 112.224 283.528C120.885 285.282 129.945 283.831 137.459 279.487C144.878 275.005 150.098 268.016 151.997 260.02C153.897 252.025 152.326 243.66 147.62 236.722C142.767 229.894 135.213 225.09 126.573 223.337C117.933 221.584 108.893 223.021 101.386 227.341C93.9529 231.81 88.7155 238.794 86.7996 246.791C84.8837 254.787 86.442 263.158 91.1395 270.105Z" fill="#F15832"/>
    <path d="M371.428 158.151L296.594 313.013C295.358 315.551 293.625 317.836 291.49 319.742C289.326 321.605 286.824 323.066 284.108 324.053C281.367 325.004 278.461 325.441 275.549 325.338C272.646 325.188 269.797 324.521 267.147 323.372L263.22 321.557C260.552 320.421 258.168 318.745 256.232 316.642C254.244 314.598 252.72 312.177 251.756 309.534C250.724 306.932 250.269 304.15 250.421 301.368C250.541 298.568 251.235 295.818 252.463 293.277L329.103 135.466C330.134 133.312 331.597 131.375 333.407 129.767C335.218 128.159 337.341 126.911 339.655 126.096C341.968 125.281 344.426 124.914 346.887 125.017C349.348 125.12 351.764 125.69 353.995 126.695L360.984 129.795C363.634 130.978 366.012 132.657 367.981 134.734C369.949 136.811 371.468 139.245 372.449 141.894C373.415 144.532 373.822 147.33 373.647 150.122C373.471 152.914 372.717 155.644 371.428 158.151Z" fill="#4DBD98"/>
    <path d="M284.616 172.528L191.288 375.173C190.197 377.633 188.605 379.833 186.615 381.627C184.63 383.491 182.291 384.925 179.739 385.841C177.188 386.757 174.479 387.137 171.777 386.956C169.205 386.838 166.683 386.2 164.358 385.08L159.239 382.678C156.841 381.558 154.687 379.966 152.904 377.994C151.12 376.022 149.743 373.711 148.853 371.195C147.953 368.802 147.549 366.247 147.666 363.69C147.8 361.09 148.43 358.542 149.521 356.184L244.332 150.087C246.214 146.085 249.569 142.987 253.68 141.456C255.723 140.686 257.897 140.336 260.075 140.426C262.253 140.516 264.392 141.045 266.366 141.981L274.749 145.884C279.583 148.18 283.32 152.321 285.142 157.4C286.964 162.478 286.721 168.08 284.468 172.978L284.616 172.528Z" fill="#F3E503"/>
</svg>
